<?xml version="1.0" standalone="no"?>
<!DOCTYPE svg PUBLIC "-//W3C//DTD SVG 20010904//EN"
 "http://www.w3.org/TR/2001/REC-SVG-20010904/DTD/svg10.dtd">
<svg version="1.0" xmlns="http://www.w3.org/2000/svg"
 width="500.000000pt" height="500.000000pt" viewBox="0 0 500.000000 500.000000"
 preserveAspectRatio="xMidYMid meet">
<metadata>
Created by potrace 1.11, written by Peter Selinger 2001-2013
</metadata>
<g transform="translate(0.000000,500.000000) scale(0.100000,-0.100000)"
fill="#000000" stroke="none">
<path d="M500 2500 l0 -2000 2000 0 2000 0 0 2000 0 2000 -2000 0 -2000 0 0
-2000z m2127 959 c108 -14 258 -67 355 -125 48 -29 118 -84 169 -134 139 -136
223 -284 271 -477 31 -124 31 -322 0 -446 -48 -193 -132 -341 -271 -477 -105
-102 -215 -170 -349 -216 -336 -115 -697 -34 -953 216 -139 136 -223 284 -271
477 -31 124 -31 322 0 446 48 193 132 341 271 477 210 205 490 298 778 259z"/>
</g>
</svg>
